<?xml version="1.0" encoding="utf-8"?>
<!-- Generator: Adobe Illustrator 18.1.0, SVG Export Plug-In . SVG Version: 6.00 Build 0)  -->
<!DOCTYPE svg PUBLIC "-//W3C//DTD SVG 1.1//EN" "http://www.w3.org/Graphics/SVG/1.1/DTD/svg11.dtd">
<svg version="1.1" id="Layer_1" xmlns="http://www.w3.org/2000/svg" xmlns:xlink="http://www.w3.org/1999/xlink" x="0px" y="0px"
	 viewBox="0 0 144 18" enable-background="new 0 0 144 18" xml:space="preserve">
<path fill="none" stroke="#FFFFFF" stroke-miterlimit="10" d="M0,9c0,0,5.1-8.5,9-8.5c4.2,0,9,8.5,9,8.5s4.6,8.5,8.9,8.5S36,9,36,9
	s5.1-8.5,9-8.5c4.2,0,9,8.5,9,8.5s4.6,8.5,8.9,8.5S72,9,72,9s5.1-8.5,9-8.5c4.2,0,9,8.5,9,8.5s4.6,8.5,8.9,8.5
	c4.3,0,9.2-8.5,9.2-8.5s5.1-8.5,9-8.5c4.2,0,9,8.5,9,8.5s4.6,8.5,8.9,8.5c4.3,0,9.2-8.5,9.2-8.5"/>
</svg>
